<svg width="40" height="40" viewBox="0 0 40 40" fill="none" xmlns="http://www.w3.org/2000/svg">
<path d="M26.7276 14.7191L25.536 13.4861L13.5033 25.1152L14.6949 26.3481L26.7276 14.7191Z" fill="white"/>
<path d="M26 14H36.8C37.4628 14 38 14.5373 38 15.2V36.8C38 37.4628 37.4628 38 36.8 38H15.2C14.5373 38 14 37.4628 14 36.8V26" fill="white"/>
<path d="M26 14H36.8C37.4628 14 38 14.5373 38 15.2V36.8C38 37.4628 37.4628 38 36.8 38H15.2C14.5373 38 14 37.4628 14 36.8V26" stroke="#16161A" stroke-width="2" stroke-linecap="round" stroke-linejoin="round"/>
<path d="M26 14V3.2C26 2.53726 25.4628 2 24.8 2H3.2C2.53726 2 2 2.53726 2 3.2V24.8C2 25.4628 2.53726 26 3.2 26H14" fill="white"/>
<path d="M26 14V3.2C26 2.53726 25.4628 2 24.8 2H3.2C2.53726 2 2 2.53726 2 3.2V24.8C2 25.4628 2.53726 26 3.2 26H14" stroke="#16161A" stroke-width="2" stroke-linecap="round" stroke-linejoin="round"/>
<path d="M10 20C9.44772 20 9 19.5523 9 19V8C9 7.44772 9.44772 7 10 7H13.7531C14.4801 7 15.1591 7.07311 15.7901 7.21932C16.4348 7.35225 16.9904 7.58487 17.4568 7.91718C17.9369 8.2362 18.3141 8.6682 18.5885 9.21319C18.8628 9.74489 19 10.4029 19 11.1871C19 11.9448 18.856 12.6028 18.5679 13.161C18.2936 13.7193 17.9163 14.1779 17.4362 14.5368C16.9561 14.8957 16.4005 15.1616 15.7695 15.3344C15.1385 15.5072 14.4664 15.5936 13.7531 15.5936H13.0247C12.4724 15.5936 12.0247 16.0413 12.0247 16.5936V19C12.0247 19.5523 11.577 20 11.0247 20H10ZM12.0247 12.2607C12.0247 12.813 12.4724 13.2607 13.0247 13.2607H13.5679C15.214 13.2607 16.037 12.5695 16.037 11.1871C16.037 10.5092 15.8244 10.0307 15.3992 9.75153C14.9877 9.47239 14.3772 9.33282 13.5679 9.33282H13.0247C12.4724 9.33282 12.0247 9.78054 12.0247 10.3328V12.2607Z" fill="#16161A"/>
<path d="M18.7654 24.207C19.0587 24.207 19.3741 24.1777 19.7114 24.119C20.0561 24.0603 20.3604 23.9833 20.6244 23.888V25.692C20.2211 25.8533 19.8544 25.9633 19.5244 26.022C19.2017 26.088 18.8607 26.121 18.5014 26.121C17.8414 26.121 17.3171 26.0513 16.9284 25.912C16.5471 25.7653 16.2427 25.5343 16.0154 25.219C15.8247 24.9403 15.6817 24.581 15.5864 24.141C15.4911 23.701 15.4434 23.1693 15.4434 22.546C15.4434 21.3213 15.7147 20.423 16.2574 19.851C16.8001 19.279 17.6654 18.993 18.8534 18.993C19.1907 18.993 19.4914 19.0003 19.7554 19.015C20.0194 19.0297 20.2577 19.0553 20.4704 19.092V20.885C20.2357 20.8703 19.9901 20.8593 19.7334 20.852C19.4767 20.8447 19.1907 20.841 18.8754 20.841C18.3401 20.841 17.9881 20.962 17.8194 21.204C17.6507 21.4387 17.5664 21.886 17.5664 22.546C17.5664 23.1693 17.6434 23.602 17.7974 23.844C17.9587 24.086 18.2814 24.207 18.7654 24.207Z" fill="black"/>
<path d="M29.0944 23.103V30H27.1804V26.337L26.2784 28.702H24.6834L23.8144 26.348V30H21.9114V23.103H24.3864L25.5194 26.183L26.7074 23.103H29.0944Z" fill="black"/>
<path d="M33.3297 31.492L32.0427 31.217C31.4781 31.0923 31.0821 30.8833 30.8547 30.59C30.6347 30.2967 30.5247 29.8823 30.5247 29.347C30.5247 28.5403 30.7374 27.9463 31.1627 27.565C31.5881 27.1837 32.2591 26.993 33.1757 26.993C33.5717 26.993 33.9274 27.0113 34.2427 27.048C34.5581 27.0773 34.8294 27.125 35.0567 27.191V29.006C34.5361 28.918 34.1547 28.8667 33.9127 28.852C33.6707 28.83 33.4214 28.819 33.1647 28.819C32.9227 28.819 32.7467 28.852 32.6367 28.918C32.5341 28.984 32.4827 29.094 32.4827 29.248C32.4827 29.3287 32.5011 29.391 32.5377 29.435C32.5817 29.479 32.6551 29.512 32.7577 29.534L33.9567 29.798C34.3307 29.8787 34.6094 29.9667 34.7927 30.062C34.9761 30.15 35.1227 30.26 35.2327 30.392C35.3574 30.5387 35.4454 30.7257 35.4967 30.953C35.5554 31.1803 35.5847 31.4553 35.5847 31.778C35.5847 32.5993 35.3647 33.197 34.9247 33.571C34.4847 33.9377 33.8064 34.121 32.8897 34.121C32.4204 34.121 31.9657 34.0953 31.5257 34.044C31.0931 33.9927 30.7704 33.9267 30.5577 33.846V31.921C30.8364 32.009 31.1884 32.0823 31.6137 32.141C32.0464 32.1997 32.4754 32.229 32.9007 32.229C33.1574 32.229 33.3371 32.1997 33.4397 32.141C33.5424 32.0823 33.5937 31.976 33.5937 31.822C33.5937 31.7193 33.5754 31.646 33.5387 31.602C33.5094 31.558 33.4397 31.5213 33.3297 31.492Z" fill="black"/>
</svg>
