<svg width="40" height="40" viewBox="0 0 40 40" fill="none" xmlns="http://www.w3.org/2000/svg">
<path d="M19 10.5V2.85C19 2.38056 18.6195 2 18.15 2H2.85C2.38056 2 2 2.38056 2 2.85V18.15C2 18.6195 2.38056 19 2.85 19H10.5" fill="white"/>
<path d="M19 13V2.85C19 2.38056 18.6195 2 18.15 2H2.85C2.38056 2 2 2.38056 2 2.85V18.15C2 18.6195 2.38056 19 2.85 19H13" stroke="#16161A" stroke-width="2" stroke-linecap="round" stroke-linejoin="round"/>
<path d="M7.7 15C7.3134 15 7 14.6901 7 14.3077V6.69231C7 6.30996 7.3134 6 7.7 6H10.3272C10.8361 6 11.3114 6.05061 11.7531 6.15184C12.2044 6.24387 12.5933 6.40491 12.9198 6.63497C13.2558 6.85583 13.5199 7.15491 13.7119 7.53221C13.904 7.90031 14 8.35585 14 8.89876C14 9.42332 13.8992 9.87886 13.6975 10.2653C13.5055 10.6518 13.2414 10.9693 12.9053 11.2178C12.5693 11.4663 12.1803 11.6503 11.7386 11.77C11.2969 11.8896 10.8265 11.9494 10.3272 11.9494H9.81729C9.43068 11.9494 9.11729 12.2594 9.11729 12.6417V14.3077C9.11729 14.6901 8.8039 15 8.41729 15H7.7ZM9.11729 9.64202C9.11729 10.0244 9.43068 10.3343 9.81729 10.3343H10.1975C11.3498 10.3343 11.9259 9.85581 11.9259 8.89876C11.9259 8.42945 11.7771 8.09818 11.4794 7.90491C11.1914 7.71165 10.764 7.61503 10.1975 7.61503H9.81729C9.43068 7.61503 9.11729 7.92499 9.11729 8.30732V9.64202Z" fill="#16161A"/>
<path d="M37 31V25.6C37 25.2686 36.7314 25 36.4 25H25.6C25.2686 25 25 25.2686 25 25.6V36.4C25 36.7314 25.2686 37 25.6 37H37" fill="white"/>
<path d="M25 31C25 35.2177 25 36.4 25 36.4C25 36.7314 25.2686 37 25.6 37H37V25.6C37 25.2686 36.7314 25 36.4 25H31" stroke="#16161A" stroke-width="2" stroke-linecap="round" stroke-linejoin="round"/>
<path d="M31 25V19.6C31 19.2686 30.7314 19 30.4 19H19.6C19.2686 19 19 19.2686 19 19.6V30.4C19 30.7314 19.2686 31 19.6 31H25" fill="white"/>
<path d="M31 25V19.6C31 19.2686 30.7314 19 30.4 19H25M19 25C19 29.2177 19 30.4 19 30.4C19 30.7314 19.2686 31 19.6 31H25" stroke="#16161A" stroke-width="2" stroke-linecap="round" stroke-linejoin="round"/>
<path d="M25 19V13.6C25 13.2686 24.7314 13 24.4 13H13.6C13.2686 13 13 13.2686 13 13.6V24.4C13 24.7314 13.2686 25 13.6 25H19" fill="white"/>
<path d="M25 19V13.6C25 13.2686 24.7314 13 24.4 13H19M13 19C13 23.2177 13 24.4 13 24.4C13 24.7314 13.2686 25 13.6 25H19" stroke="#16161A" stroke-width="2" stroke-linecap="round" stroke-linejoin="round"/>
<path d="M19.4049 20.3889C19.6172 20.3889 19.8455 20.3642 20.0897 20.3148C20.3392 20.2654 20.5595 20.2006 20.7506 20.1204C20.9417 20.0401 21.2002 21.3913 20.7506 21.6389C20.301 21.8864 20.1932 21.8673 19.9543 21.9167C19.7207 21.9722 19.4739 22 19.2137 22C18.736 22 18.3564 21.9414 18.075 21.8241C17.799 21.7006 17.5787 21.5062 17.4141 21.2407C17.2761 21.0062 17.1725 20.7037 17.1035 20.3333C17.0345 19.963 17 19.5154 17 18.9907C17 17.9599 17.1964 17.2037 17.5893 16.7222C17.9821 16.2407 18.6086 16 19.4686 16C19.7128 16 19.9304 16.0062 20.1215 16.0185C20.3127 16.0309 20.301 15.9942 20.6391 16.0833C20.9773 16.1725 20.864 17.6069 20.6391 17.5926C20.4143 17.5783 20.2914 17.571 20.1056 17.5648C19.9198 17.5586 19.7128 17.5556 19.4845 17.5556C19.097 17.5556 18.8421 17.6574 18.72 17.8611C18.5979 18.0586 18.5369 18.4352 18.5369 18.9907C18.5369 19.5154 18.5926 19.8796 18.7041 20.0833C18.8209 20.287 19.0545 20.3889 19.4049 20.3889Z" fill="black"/>
<path d="M27.5 22C27.7761 22 28 22.2239 28 22.5V27.5C28 27.7761 27.7761 28 27.5 28H26.9012C26.6251 28 26.4012 27.7761 26.4012 27.5V25.0953C26.4012 25.0394 26.3235 25.0257 26.3043 25.0781L25.7679 26.5428C25.6958 26.7398 25.5082 26.8708 25.2984 26.8708H24.6687C24.457 26.8708 24.2682 26.7374 24.1974 26.5379L23.6867 25.097C23.6679 25.044 23.5896 25.0575 23.5896 25.1137V27.5C23.5896 27.7761 23.3657 28 23.0896 28H22.5C22.2239 28 22 27.7761 22 27.5V22.5C22 22.2239 22.2239 22 22.5 22H23.7137C23.9257 22 24.1146 22.1336 24.1852 22.3335L24.9678 24.5491C24.9833 24.5932 25.0455 24.5937 25.0618 24.5498L25.8853 22.3263C25.9579 22.1302 26.145 22 26.3541 22H27.5Z" fill="black"/>
<path d="M31.2174 31.787L30.2 31.5556C29.7536 31.4506 29.4406 31.2747 29.2609 31.0278C29.087 30.7809 29 30.4321 29 29.9815C29 29.3025 29.1681 28.8025 29.5043 28.4815C29.8406 28.1605 30.371 28 31.0957 28C31.4087 28 31.6899 28.0154 31.9391 28.0463C32.0396 28.0562 32.1344 28.0687 32.2236 28.0837C32.4398 28.12 32.5826 28.3162 32.5826 28.5354V29.0964C32.5826 29.408 32.3011 29.6409 31.9923 29.5987C31.8666 29.5815 31.7619 29.5702 31.6783 29.5648C31.487 29.5463 31.2899 29.537 31.087 29.537C30.8957 29.537 30.7565 29.5648 30.6696 29.6204C30.5884 29.6759 30.5478 29.7685 30.5478 29.8981C30.5478 29.9661 30.5623 30.0185 30.5913 30.0556C30.6261 30.0926 30.6841 30.1204 30.7652 30.1389L31.713 30.3611C32.0087 30.429 32.229 30.5031 32.3739 30.5833C32.5188 30.6574 32.6348 30.75 32.7217 30.8611C32.8203 30.9846 32.8899 31.142 32.9304 31.3333C32.9768 31.5247 33 31.7562 33 32.0278C33 32.7191 32.8261 33.2222 32.4783 33.537C32.1304 33.8457 31.5942 34 30.8696 34C30.4985 34 30.1391 33.9784 29.7913 33.9352C29.623 33.9139 29.4758 33.8897 29.3496 33.8624C29.1503 33.8194 29.0261 33.6351 29.0261 33.4312V32.8438C29.0261 32.502 29.3652 32.2517 29.7023 32.3084C29.7536 32.317 29.8065 32.3253 29.8609 32.3333C30.2029 32.3827 30.542 32.4074 30.8783 32.4074C31.0812 32.4074 31.2232 32.3827 31.3043 32.3333C31.3855 32.2839 31.4261 32.1944 31.4261 32.0648C31.4261 31.9784 31.4116 31.9167 31.3826 31.8796C31.3594 31.8426 31.3043 31.8117 31.2174 31.787Z" fill="black"/>
</svg>
